<?xml version="1.0" standalone="no"?>
<!DOCTYPE svg PUBLIC "-//W3C//DTD SVG 20010904//EN"
 "http://www.w3.org/TR/2001/REC-SVG-20010904/DTD/svg10.dtd">
<svg version="1.0" xmlns="http://www.w3.org/2000/svg"
 width="160.000000pt" height="160.000000pt" viewBox="0 0 160.000000 160.000000"
 preserveAspectRatio="xMidYMid meet">
<metadata>
Created by potrace 1.14, written by Peter Selinger 2001-2017
</metadata>
<g transform="translate(0.000000,160.000000) scale(0.100000,-0.100000)"
fill="#000000" stroke="none">
<path d="M1319 1593 c-1 -5 -2 -17 -3 -28 -1 -22 5 -21 -161 -26 -153 -4 -201
-24 -300 -123 -44 -45 -93 -106 -109 -136 -28 -52 -30 -62 -33 -194 -2 -77 -4
-140 -6 -142 -1 -1 -54 -5 -117 -9 -117 -7 -156 -17 -144 -37 4 -7 3 -8 -5 -4
-6 4 -9 12 -6 17 11 17 -11 9 -56 -20 -24 -16 -95 -80 -157 -143 -143 -145
-154 -171 -156 -371 0 -46 -3 -57 -16 -56 -47 4 -47 5 -47 -120 l0 -118 28 3
c26 3 43 -15 38 -42 -7 -42 -3 -44 111 -44 l110 0 0 41 0 41 35 -5 c22 -3 35
-1 35 7 0 7 3 8 8 0 8 -11 129 -10 197 1 85 15 179 88 286 223 74 92 83 121
94 287 3 54 8 102 10 105 2 3 51 6 109 7 84 2 114 7 151 24 61 29 271 237 295
293 23 51 35 127 39 244 1 27 5 32 24 32 23 0 24 1 24 115 l1 116 -29 6 c-24
4 -29 11 -29 34 l0 29 -110 0 c-60 0 -111 -3 -111 -7z m-47 -350 l51 -64 -7
-81 c-7 -83 -14 -108 -25 -90 -3 6 -45 52 -93 104 -131 141 -168 182 -168 188
0 3 43 6 96 6 l95 0 51 -63z m-240 -65 c49 -51 92 -98 96 -105 4 -6 27 -33 53
-60 70 -74 70 -75 5 -72 -31 1 -58 0 -61 -3 -15 -15 -59 11 -119 71 l-66 66
-4 98 c-2 53 -1 97 2 97 2 0 45 -42 94 -92z m149 -271 c-10 -9 -11 -8 -5 6 3
10 9 15 12 12 3 -3 0 -11 -7 -18z m79 8 c0 -2 -6 -5 -13 -8 -8 -3 -14 1 -14 8
0 7 6 11 14 8 7 -3 13 -6 13 -8z m-770 -16 c0 -5 -4 -9 -8 -9 -5 0 -9 7 -9 15
0 8 4 12 9 9 4 -3 8 -9 8 -15z m721 -2 c-6 -8 -9 -16 -6 -18 2 -3 -6 -5 -20
-5 -13 0 -21 4 -19 8 3 5 9 6 14 3 4 -3 13 2 20 10 7 8 15 15 17 15 3 0 0 -6
-6 -13z m54 -17 c-1 -11 -4 -22 -7 -25 -4 -5 -4 34 1 43 4 8 7 -1 6 -18z
m-844 -13 c-10 -9 -11 -8 -5 6 3 10 9 15 12 12 3 -3 0 -11 -7 -18z m566 6 c0
-8 -4 -10 -12 -3 -7 5 -16 6 -20 2 -5 -4 -5 -2 -2 4 9 15 34 13 34 -3z m16
-41 c15 -16 15 -19 2 -19 -8 0 -13 3 -10 5 3 3 0 11 -6 19 -17 20 -5 16 14 -5z
m248 -9 c13 -16 12 -17 -3 -4 -10 7 -18 15 -18 17 0 8 8 3 21 -13z m-277 -1
c3 -5 -1 -9 -9 -9 -8 0 -12 4 -9 9 3 4 7 8 9 8 2 0 6 -4 9 -8z m231 -1 c3 -5
2 -12 -3 -15 -5 -3 -9 1 -9 9 0 17 3 19 12 6z m-135 -19 c0 -4 -9 -8 -20 -9
-11 -1 -20 2 -20 5 0 4 9 8 20 9 11 1 20 -2 20 -5z m105 -2 c-3 -5 -12 -10
-18 -10 -7 0 -6 4 3 10 19 12 23 12 15 0z m52 -5 c0 -8 -4 -12 -9 -9 -5 3 -6
10 -3 15 9 13 12 11 12 -6z m-239 -40 c-3 -3 -9 2 -12 12 -6 14 -5 15 5 6 7
-7 10 -15 7 -18z m132 10 c0 -2 -6 -8 -13 -14 -10 -8 -14 -7 -14 2 0 8 6 14
14 14 7 0 13 -1 13 -2z m110 -1 c0 -8 -19 -13 -24 -6 -3 5 1 9 9 9 8 0 15 -2
15 -3z m-43 -19 c0 -8 -4 -12 -9 -9 -5 3 -6 10 -3 15 9 13 12 11 12 -6z m-132
-4 c-9 -8 -36 -10 -30 -2 2 4 11 8 20 8 8 0 13 -3 10 -6z m-389 -88 l45 -52 3
-106 c2 -58 0 -108 -5 -110 -7 -5 -319 297 -319 309 0 7 60 11 153 11 l79 0
44 -52z m-183 -168 c92 -91 167 -167 167 -168 0 -2 -47 -4 -106 -5 l-105 -1
-75 72 -76 72 7 75 c4 41 8 85 8 98 1 12 3 22 7 22 3 0 80 -74 173 -165z
m-175 -147 c16 -16 15 -28 -2 -28 -7 0 -16 9 -19 20 -6 23 3 26 21 8z"/>
</g>
</svg>
